# xmcd CD database file
#
# Track frame offsets:
#	150
#	13032
#	28467
#	43439
#	58471
#	73965
#	89895
#	105424
#	120747
#	134963
#	149260
#	163867
#	178475
#	194301
#	209553
#	221957
#	236683
#	250308
#	265433
#	281109
#
# Disc length: 3948 seconds
#
# Revision: 4
# Processed by: cddbd v1.5.2PL0 Copyright (c) Steve Scherf et al.
# Submitted via: CDex 1.51
#
DISCID=690f6a14
DTITLE=Louis Armstrong - it's Louis Armstrong - Vol.3
DYEAR=1900
DGENRE=Jazz
TTITLE0=Muggles
TTITLE1=Hear Me Takin´ To Ya ¿
TTITLE2=St. James Infirmary
TTITLE3=Tight Like This
TTITLE4=Knockin´ A Jug
TTITLE5=I Can´t Give You Anything But Love
TTITLE6=Mahogany Hall Stomp
TTITLE7=Ain´t Misbehavin´
TTITLE8=(What Did I Do To Do So)  Black And Blue
TTITLE9=That Rhythm Man
TTITLE10=Sweet Savannah Sue
TTITLE11=Some Of These Days
TTITLE12=When You´re Smiling
TTITLE13=After You´ve Gone
TTITLE14=I Ain´t Got Nobody
TTITLE15=Dallas Blues
TTITLE16=St. Louis Blues
TTITLE17=Rockin´ Chair
TTITLE18=Song Of The Islands
TTITLE19=Bessie Couldn´t Help It
EXTD=
EXTT0=
EXTT1=
EXTT2=
EXTT3=
EXTT4=
EXTT5=
EXTT6=
EXTT7=
EXTT8=
EXTT9=
EXTT10=
EXTT11=
EXTT12=
EXTT13=
EXTT14=
EXTT15=
EXTT16=
EXTT17=
EXTT18=
EXTT19=
PLAYORDER=
